<svg width="195" height="185" viewBox="0 0 195 185" fill="none" xmlns="http://www.w3.org/2000/svg">
<circle cx="97" cy="87" r="85" fill="black"/>
<g clip-path="url(#clip0_2_19)">
<path d="M79.9882 53.7599L30.3165 62.5978C28.7804 62.9399 28.1254 64.7652 29.0914 66.005L63.7531 110.146L79.9882 53.7599V53.7599ZM42.145 53.42L79.7193 45.0327L74.2384 21.7169C74.0471 20.905 73.0449 20.6122 72.4473 21.1932L41.1624 51.6058C40.388 52.3586 41.088 53.6553 42.145 53.42ZM23.3844 75.7089L42.8536 129.439C43.3728 130.915 45.2485 131.353 46.3688 130.264L58.9876 117.997L25.25 74.7176C24.5148 73.7691 23.0121 74.5647 23.3844 75.7089V75.7089ZM88.09 43.1631L130.488 31.8212C132.655 31.3363 132.747 28.2827 130.614 27.6688L83.495 17.1099C82.7223 16.9379 82.0378 17.6332 82.2165 18.4014L88.09 43.1631V43.1631ZM112.385 72.0683L132.785 93.0536L147.286 43.2343C147.677 41.684 147.185 40.2007 146.204 39.1919C145.223 38.183 143.755 37.6487 142.194 37.9962L91.9844 51.083L112.385 72.0683ZM161.637 111.623L138.484 105.487L129.038 142.809C128.771 143.857 130.049 144.595 130.825 143.84L162.11 113.428C162.708 112.847 162.444 111.837 161.637 111.623V111.623ZM140.591 97.1703L165.179 103.74C165.944 103.942 166.656 103.275 166.506 102.498L157.282 55.1009C156.728 52.9516 153.673 52.9577 153.127 55.1104L140.591 97.1703ZM107.273 159.093L64.9671 124.144L52.3482 136.411C51.226 137.502 51.6125 139.387 53.0733 139.948L106.231 160.928C107.363 161.335 108.2 159.855 107.273 159.093V159.093ZM129.77 104.969L72.9492 119.606L116.093 155.502C117.307 156.5 119.148 155.899 119.533 154.373L129.77 104.969V104.969ZM106.236 78.0458L87.4755 58.7476L72.4643 110.876L124.996 97.344L106.236 78.0458Z" fill="#C12121"/>
</g>
<defs>
<clipPath id="clip0_2_19">
<rect width="137.21" height="137.21" fill="white" transform="translate(98.3837 -10) rotate(45.81)"/>
</clipPath>
</defs>
</svg>
